<svg width="126" height="103" viewBox="0 0 126 103" fill="none" xmlns="http://www.w3.org/2000/svg">
<path d="M41.1553 25.0892C41.1553 20.8099 44.7508 17.3408 49.1861 17.3408H104.84C109.275 17.3408 112.871 20.8099 112.871 25.0892V88.6336H41.1553V25.0892Z" fill="#4C71F9"/>
<path d="M41.1553 25.0111C41.1553 21.9448 42.8367 19.459 46.0144 19.459H100.587C103.707 19.459 106.236 21.8993 106.236 24.9096C106.236 45.2895 106.236 50.7956 106.236 61.8108H41.1553V25.0111Z" fill="#809BFF"/>
<path d="M27.8129 56.0372C27.2311 51.9973 30.365 48.3799 34.4466 48.3799H40.2199C43.9214 48.3799 46.922 51.3805 46.922 55.082V88.5925H32.5002L27.8129 56.0372Z" fill="#FC394A"/>
<path d="M125.931 56.0372C126.512 51.9973 123.379 48.3799 119.297 48.3799H113.523C109.822 48.3799 106.821 51.3805 106.821 55.082V88.5925H121.244L125.931 56.0372Z" fill="#4C71F9"/>
<path d="M27.8129 56.0372C27.2311 51.9973 30.365 48.3799 34.4466 48.3799H40.2199C43.9214 48.3799 46.922 51.3805 46.922 55.082V88.5925H32.5002L27.8129 56.0372Z" fill="#4C71F9"/>
<path d="M43.4336 88.5925H46.9227V55.082C46.9227 51.3805 43.9221 48.3799 40.2205 48.3799H36.7314C40.433 48.3799 43.4336 51.3805 43.4336 55.082V88.5925Z" fill="#1D51FE"/>
<path d="M110.31 88.5925H106.821V55.082C106.821 51.3805 109.822 48.3799 113.523 48.3799H117.013C113.311 48.3799 110.31 51.3805 110.31 55.082V88.5925Z" fill="#1D51FE"/>
<path d="M39.7988 93.6104H49.9046L47.5186 102.629H39.7988V93.6104Z" fill="#4C71F9"/>
<path d="M114.014 93.6104H103.908L106.294 102.629H114.014V93.6104Z" fill="#4C71F9"/>
<path d="M29.4473 89.3297C29.4473 88.9227 29.7771 88.5938 30.1841 88.5938H123.664C124.071 88.5938 124.401 88.9227 124.401 89.3297V93.4708C124.401 93.8778 124.071 94.208 123.664 94.208H30.1841C29.7771 94.208 29.4473 93.8778 29.4473 93.4708V89.3297Z" fill="#1D51FE"/>
<path d="M51.3931 63.4727C48.9301 63.4727 46.9336 65.4685 46.9336 67.9305V88.5665H106.873V67.9305C106.873 65.4685 104.876 63.4727 102.413 63.4727H51.3931Z" fill="#809BFF"/>
<path d="M12.9746 60.8761L19.2919 55.2305C19.2919 55.2305 26.4014 57.0051 26.9059 58.049C26.6561 58.2436 20.1 66.783 20.1 66.783L12.9746 60.8761Z" fill="#FFC6C7"/>
<path d="M18.5239 71.3875L19.6526 69.0961C18.6431 68.8219 17.8217 68.4105 16.6153 67.8062L16.5908 67.794C15.371 67.183 12.3284 65.686 10.2226 64.6736C8.11679 63.6614 6.33616 62.5432 4.37104 60.8951C2.79897 59.5767 1.39731 57.6137 0.89299 56.7969C0.829436 56.8432 0.561843 57.044 0 57.4774C0.781473 58.951 2.04082 60.5697 4.19577 62.492C6.3506 64.4145 10.4035 66.8564 12.3186 68.0075C13.8507 68.9284 17.0939 70.6445 18.5239 71.3875Z" fill="#4C71F9"/>
<path d="M4.37154 60.8952C2.79946 59.5767 1.39777 57.6137 0.893446 56.7969C0.858848 56.8221 0.763803 56.8931 0.59375 57.0225C1.29471 58.2903 3.2492 60.2938 4.07392 61.122C4.89851 61.9504 7.6574 63.7348 8.81679 64.3595C9.97618 64.9842 12.3373 66.0016 14.2991 67.0786C15.8686 67.9401 18.3925 69.0459 19.4584 69.4913L19.6531 69.0963C18.6436 68.8219 17.8222 68.4105 16.6158 67.8062L16.5913 67.794C15.3715 67.183 12.3288 65.686 10.223 64.6738C8.11715 63.6615 6.33666 62.5432 4.37154 60.8952Z" fill="white"/>
<path d="M10.2232 64.6743C8.11743 63.6621 6.33693 62.5438 4.37181 60.8958C2.85044 59.6199 1.48867 57.7402 0.945312 56.88C2.2924 55.8783 3.3557 56.3808 4.34568 56.8487L4.37142 56.8607C5.36867 57.3319 7.46928 58.5995 9.28436 58.7567C11.0996 58.914 14.4402 57.9601 14.8396 57.9006C15.239 57.8411 15.4521 58.0784 15.4564 58.2364C15.4607 58.3942 15.8943 61.8219 17.9484 63.1636C20.0023 64.5054 21.4561 64.3321 22.2084 64.2874C20.9677 67.6463 19.8129 68.8427 19.3906 69.021C18.4962 68.7485 17.7162 68.3579 16.6161 67.8069L16.5916 67.7947C15.3718 67.1837 12.329 65.6865 10.2232 64.6743Z" fill="#362DC8"/>
<path d="M69.3488 66.9249C66.6439 58.8785 76.217 46.7509 76.217 46.7509C76.217 46.7509 53.859 34.7475 48.511 32.7805C43.1633 30.8134 40.695 30.197 37.708 32.8995C28.6868 41.0616 21.3267 50.4032 17.9365 54.9011L26.6106 62.4399C28.234 60.4615 36.682 52.567 40.7359 48.8065C41.9932 47.6402 43.9005 47.5534 45.2621 48.596C51.4664 53.3466 67.904 65.923 69.3488 66.9249Z" fill="#FFB902"/>
<path d="M31.2744 27.9443L40.1987 25.2803L42.0082 32.2399C42.0082 32.2399 36.9343 35.3815 36.4729 35.7595C35.0988 35.313 31.2744 27.9443 31.2744 27.9443Z" fill="#FFC6C7"/>
<path d="M77.4187 41.4421C77.7683 42.5379 78.0504 43.4215 78.2471 44.024L76.4415 47.0211C76.4415 47.0211 69.4192 43.2511 62.3043 39.5904L61.0952 31.223C60.9424 30.1653 59.9217 29.4614 58.8786 29.6945L40.7003 33.7565L36.3887 25.5231C36.3887 25.5231 52.082 18.5764 60.795 15.6492C64.9533 14.2522 68.185 14.8433 69.8711 19.2492C72.6785 26.5848 75.7857 36.3239 77.4182 41.4404V41.4407L77.4187 41.4421Z" fill="#FBA600"/>
<path d="M58.8786 29.6942C59.9216 29.4612 60.9424 30.1652 61.0952 31.2229C60.5383 27.3687 60.795 23.6226 63.3462 21.2227C58.8287 22.8015 58.4856 27.5282 58.8786 29.6942Z" fill="#EB9C03"/>
<path d="M31.5113 41.1007L33.611 39.1093C32.7034 38.5121 32.0435 37.8336 31.0741 36.837L31.0544 36.8168C30.0745 35.8092 27.6185 33.323 25.9089 31.6271C24.1993 29.931 22.8632 28.2282 21.5615 25.9256C20.5201 24.0833 19.9206 21.6348 19.7509 20.6406C19.6673 20.6681 19.3123 20.7899 18.5625 21.0573C18.7385 22.8105 19.3379 24.862 20.7172 27.505C22.0966 30.1481 25.1807 33.9178 26.6393 35.6962C27.8061 37.119 30.3735 39.892 31.5113 41.1007Z" fill="#4C71F9"/>
<path d="M21.5598 25.9255C20.5185 24.0834 19.9188 21.6348 19.7493 20.6406C19.7038 20.6556 19.5778 20.6985 19.3516 20.7777C19.532 22.295 20.6745 24.9582 21.1637 26.0644C21.6529 27.1707 23.7014 29.8619 24.6145 30.8648C25.5276 31.8676 27.4938 33.649 29.0305 35.366C30.26 36.7398 32.354 38.6628 33.2473 39.4527L33.6093 39.1093C32.7018 38.5121 32.0418 37.8337 31.0725 36.837L31.0528 36.8168C30.0728 35.8092 27.6169 33.3232 25.9073 31.6271C24.1975 29.9309 22.8616 28.2283 21.5598 25.9255Z" fill="white"/>
<path d="M25.9078 31.6282C24.1981 29.9321 22.8622 28.2294 21.5604 25.9267C20.5526 24.1439 19.9586 21.7932 19.7676 20.7425C21.5499 20.1395 22.4167 20.9871 23.2239 21.7762L23.2448 21.7967C24.0579 22.5915 25.6557 24.5473 27.4281 25.2772C29.2004 26.007 32.9814 26.0779 33.4107 26.1422C33.84 26.2066 33.9567 26.5162 33.895 26.6791C33.8335 26.842 32.8414 30.4862 34.3609 32.5033C35.8806 34.5205 37.4248 34.7988 38.2053 34.9888C35.5466 38.0379 33.8776 38.9004 33.3755 38.9505C32.5837 38.3912 31.957 37.7469 31.0731 36.8381L31.0534 36.8179C30.0734 35.8103 27.6175 33.3241 25.9078 31.6282Z" fill="#362DC8"/>
<path d="M82.8995 23.9758C83.9585 25.0349 85.0879 26.3055 86.1465 27.4346C85.5065 28.2861 83.676 30.1876 83.676 30.1876C83.676 30.1876 83.2932 29.8612 82.3551 28.5278C79.0504 23.8305 80.872 21.9482 82.8995 23.9758Z" fill="#FFB4B5"/>
<path d="M86.149 27.4268C86.149 27.4268 95.992 35.6686 96.8108 36.3561C95.7169 37.4649 91.0591 40.5995 90.0278 41.3016C89.651 40.9864 82.7617 29.9417 82.7617 29.9417L86.149 27.4268Z" fill="#1346F1"/>
<path d="M104.728 26.3517L106.329 22.4513C106.428 21.4223 106.32 20.2654 106.186 18.9285C105.633 13.4224 111.814 14.715 112.805 19.2008C113.447 22.1054 112.393 26.8069 112.393 26.8069C111.554 26.8069 105.768 26.4817 104.728 26.3517Z" fill="#FFB4B5"/>
<path d="M78.1807 43.8063C80.9552 43.0554 86.9781 40.6866 91.5929 37.7259C94.9742 35.5567 101.33 31.2275 104.728 26.1567C106.093 26.1567 111.554 25.9617 112.429 26.7609C112.535 26.8782 112.633 27.0156 112.718 27.171C113.143 27.9445 114.85 31.4138 114.548 35.9262C114.246 40.4385 112.884 49.908 106.335 57.2287C95.3983 69.456 73.9202 72.32 69.5792 67.196C68.3803 65.781 67.0117 59.3186 68.3373 54.5776C70.185 47.9686 72.0932 45.4539 78.1807 43.8063Z" fill="#4C71F9"/>
<path d="M102.452 26.2215L112.429 25.8965L112.718 27.1708L103.362 27.9768L102.452 26.2215Z" fill="#1D51FE"/>
<path d="M103.753 27.4569C103.969 27.4569 104.143 27.2822 104.143 27.0668C104.143 26.8514 103.969 26.6768 103.753 26.6768C103.538 26.6768 103.363 26.8514 103.363 27.0668C103.363 27.2822 103.538 27.4569 103.753 27.4569Z" fill="white"/>
<path d="M99.1115 13.7998C99.449 11.7489 99.296 9.70805 100.337 7.6579C109.669 1.58275 117.34 15.4949 113.309 21.5408C111.698 23.9577 106.152 24.8905 102.352 23.4723C96.8565 21.421 98.4688 17.7048 99.1115 13.7998Z" fill="#FFC6C7"/>
<path d="M113.275 24.7913C111.615 27.1816 111.077 22.5842 112.022 20.2538C112.808 18.3169 110.544 15.7887 108.984 16.665C107.589 17.4492 105.653 15.7549 104.824 14.1296C103.478 11.4931 104.838 6.54542 100.019 8.28613C96.862 8.43344 97.0725 5.09205 98.4207 3.82332C106.86 -4.11792 108.491 5.81731 113.868 7.16874C124.568 9.85794 114.935 22.4005 113.275 24.7913Z" fill="#8758FF"/>
<path d="M75.5404 18.7774C75.3123 18.3753 75.4985 17.8647 75.9317 17.7036L78.4068 16.7837C78.7935 16.6399 79.2271 16.8016 79.4252 17.1633L83.5643 24.7201C83.7199 25.0041 83.6679 25.3568 83.437 25.5838L81.4931 27.4952C81.1665 27.8164 80.6241 27.7405 80.3982 27.3421L75.5404 18.7774Z" fill="#362DC8"/>
<path d="M75.8398 18.4861C75.6856 18.2138 75.8109 17.8682 76.1039 17.7582L78.5804 16.828C78.8933 16.7105 79.2452 16.8416 79.4048 17.1354L83.53 24.726C83.6896 25.02 83.6271 25.3851 83.3786 25.6091L81.4322 27.3645C81.2412 27.5366 80.9398 27.4877 80.8131 27.264L75.8398 18.4861Z" fill="#1D51FE"/>
<path d="M83.4692 24.82L79.2615 17.1806C79.171 17.0163 78.9731 16.9441 78.7981 17.0113L78.5398 17.1107C78.5023 17.1251 78.4813 17.1649 78.4904 17.204L78.5277 17.364C78.5397 17.4154 78.5125 17.468 78.4635 17.4877L77.0242 18.0684C76.9642 18.0926 76.8956 18.0786 76.85 18.0327L76.6955 17.8775C76.6516 17.8335 76.6021 17.7898 76.5435 17.8105L76.257 17.9351C76.0372 18.013 75.9408 18.2703 76.0555 18.4734L80.9227 27.0964C81.0255 27.2785 81.2722 27.3156 81.424 27.1718L83.3936 25.3058C83.5265 25.18 83.5575 24.9803 83.4692 24.82Z" fill="#EEF3FF"/>
<path d="M79.5757 23.7785C80.7084 25.2404 81.2048 26.023 82.4049 27.5761C81.6036 28.3842 78.1696 32.5875 77.3227 30.1874C75.3461 23.1995 77.3226 20.8703 79.5757 23.7785Z" fill="#FFC6C7"/>
<path d="M82.4056 27.5752L77.3232 30.1869C77.3232 30.1869 82.5402 54.2773 92.9472 54.5771C99.0995 54.7543 110.118 47.9705 112.729 38.0925C113.984 33.3424 112.275 27.4475 106.327 30.1315C101.587 32.27 94.2974 41.0069 93.5639 41.6283C92.8305 42.2497 92.4913 41.9985 92.0262 41.4495C91.0942 40.3493 82.4056 27.5752 82.4056 27.5752Z" fill="#1D51FE"/>
<path d="M83.2195 5.22363H72.0799C71.422 5.22363 70.8887 5.75697 70.8887 6.41488V11.1691C70.8887 11.827 71.422 12.3603 72.0799 12.3603H76.3351L77.8375 14.8018L79.1521 12.3603H83.2195C83.8774 12.3603 84.4108 11.827 84.4108 11.1691V6.41488C84.4108 5.75697 83.8774 5.22363 83.2195 5.22363Z" fill="#362DC8"/>
<path d="M73.3434 7.23993C72.9767 7.60659 72.9767 8.20117 73.3434 8.56796L74.8592 10.0837C74.9755 10.2 75.1641 10.2 75.2804 10.0837L76.7961 8.56796C77.1629 8.20117 77.1629 7.60659 76.7961 7.23993C76.4295 6.87315 75.8349 6.87315 75.4682 7.23993L75.0699 7.63831L74.6713 7.23993C74.3047 6.87315 73.7101 6.87315 73.3434 7.23993Z" fill="white"/>
<path d="M79.1492 8.57786H79.5692V8.88146H79.1492V9.35615H78.8293V8.88146H78.4082V8.57786H78.8293V8.12305H79.1492V8.57786Z" fill="white"/>
<path d="M81.3467 8.73366C81.2371 8.84119 81.1091 8.89502 80.9627 8.89502C80.7756 8.89502 80.6258 8.83105 80.5135 8.70311C80.401 8.57413 80.3447 8.40055 80.3447 8.18251C80.3447 8.04391 80.3748 7.91688 80.435 7.80155C80.4959 7.68518 80.5808 7.59495 80.6894 7.53098C80.798 7.4661 80.9201 7.43359 81.0558 7.43359C81.1954 7.43359 81.3195 7.46844 81.428 7.53826C81.5366 7.60808 81.621 7.70846 81.6811 7.83926C81.7413 7.97019 81.7717 8.11997 81.7727 8.2886V8.44424C81.7727 8.79712 81.685 9.07432 81.5096 9.27598C81.334 9.47764 81.0855 9.5853 80.7635 9.59882L80.6603 9.60025V9.24984L80.7534 9.24841C81.1189 9.2319 81.3166 9.06027 81.3467 8.73366ZM81.0659 8.57361C81.1338 8.57361 81.1921 8.55619 81.2406 8.52134C81.29 8.48637 81.3273 8.44424 81.3525 8.39483V8.22178C81.3525 8.07927 81.3253 7.96876 81.271 7.89022C81.2168 7.81169 81.1441 7.77242 81.0529 7.77242C80.9686 7.77242 80.8993 7.81117 80.845 7.88879C80.7907 7.96538 80.7635 8.06172 80.7635 8.17809C80.7635 8.29342 80.7898 8.38846 80.842 8.46309C80.8954 8.53681 80.97 8.57361 81.0659 8.57361Z" fill="white"/>
</svg>
