<svg width="120" height="100" viewBox="0 0 120 100" fill="none" xmlns="http://www.w3.org/2000/svg">
<g clip-path="url(#clip0_1006_22595)">
<path d="M119.167 62.7914L60 27.1357L0.8328 62.7914L0 62.2879V63.2924L60 99.4516L120 63.2924V62.2879L119.167 62.7914Z" fill="#8891BB"/>
<path d="M60 98.4463L0 62.2871L60 26.1279L120 62.2871L60 98.4463Z" fill="#F2F5F9"/>
<path d="M75.8641 83.2108L59.8657 92.9182L20.1289 68.666L36.1249 58.9561L75.8641 83.2108Z" fill="#B9CC00"/>
<path d="M69.3239 38.0449L19.2719 68.2068L15.8975 66.1751L65.9495 36.0107L69.3239 38.0449Z" fill="#3A3A3A"/>
<path d="M17.9976 67.0777L17.6592 67.2831L17.4336 67.1453L17.772 66.9424L17.9976 67.0777Z" fill="white"/>
<path d="M66.7346 37.7075L66.0578 38.1159L65.8322 37.9806L66.509 37.5723L66.7346 37.7075ZM65.381 38.5242L64.7042 38.9326L64.4786 38.7948L65.1554 38.3889L65.381 38.5242ZM64.0274 39.3409L63.3602 39.7442L63.1346 39.6089L63.8114 39.2006L64.0274 39.3409ZM62.6738 40.1551L61.997 40.5634L61.7714 40.4281L62.4482 40.0198L62.6738 40.1551ZM61.3202 40.9717L60.6434 41.3801L60.4178 41.2423L61.0946 40.8365L61.3202 40.9717ZM59.9666 41.7884L59.2802 42.1942L59.0522 42.059L59.729 41.6506L59.9666 41.7884ZM58.6106 42.6026L57.9338 43.0009L57.7082 42.8656L58.385 42.4573L58.6106 42.6026ZM57.257 43.4193L56.5802 43.8276L56.3546 43.6898L57.0314 43.284L57.257 43.4193ZM55.9034 44.2359L55.2266 44.6418L55.001 44.5065L55.6778 44.0982L55.9034 44.2359ZM54.5498 45.0501L53.873 45.4584L53.6474 45.3232L54.3242 44.9148L54.5498 45.0501ZM53.1962 45.8668L52.5194 46.2751L52.2938 46.1373L52.9706 45.7315L53.1962 45.8668ZM51.8402 46.6835L51.1634 47.0893L50.9378 46.954L51.6146 46.5457L51.8402 46.6835ZM50.489 47.5102L49.8122 47.9185L49.5866 47.7832L50.2634 47.3749L50.489 47.5102ZM49.1354 48.3268L48.4586 48.7352L48.233 48.5974L48.9098 48.1916L49.1354 48.3268ZM47.7818 49.1435L47.105 49.5493L46.8794 49.4141L47.5562 49.0057L47.7818 49.1435ZM46.4282 49.9577L45.7514 50.366L45.5258 50.2307L46.2026 49.8224L46.4282 49.9577ZM45.0746 50.7668L44.4002 51.1702L44.1746 51.0324L44.8514 50.6266L45.0746 50.7668ZM43.721 51.5835L43.0442 51.9893L42.8186 51.8541L43.4954 51.4457L43.721 51.5835ZM42.3674 52.3977L41.6906 52.806L41.4506 52.6707L42.1298 52.2624L42.3674 52.3977ZM41.0138 53.2144L40.337 53.6227L40.109 53.4849L40.7882 53.0791L41.0138 53.2144ZM39.6579 54.0235L38.981 54.4294L38.7554 54.2941L39.4322 53.8857L39.6579 54.0235ZM38.3043 54.8377L37.6274 55.246L37.4018 55.1108L38.0786 54.7024L38.3043 54.8377ZM36.9602 55.6569L36.2834 56.0652L36.0578 55.9274L36.7202 55.5266L36.9602 55.6569ZM35.6066 56.4735L34.9298 56.8794L34.7043 56.7441L35.381 56.3358L35.6066 56.4735ZM34.2434 57.2802L33.5666 57.6885L33.341 57.5533L34.0179 57.1449L34.2434 57.2802ZM32.8802 58.1044L32.2034 58.5127L31.9779 58.3749L32.6546 57.9691L32.8802 58.1044ZM31.5267 58.9211L30.8498 59.3269L30.6242 59.1916L31.301 58.7833L31.5267 58.9211ZM30.1731 59.7352L29.4963 60.1436L29.2706 60.0083L29.9474 59.6L30.1731 59.7352ZM28.8195 60.5519L28.1427 60.9603L27.9171 60.8225L28.5939 60.4166L28.8195 60.5519ZM27.4659 61.3686L26.7891 61.7744L26.5635 61.6391L27.2403 61.2308L27.4659 61.3686ZM26.1123 62.1828L25.4403 62.5911L25.2147 62.4558L25.8963 62.04L26.1123 62.1828ZM24.7587 62.9994L24.0819 63.4078L23.8563 63.27L24.5331 62.8642L24.7587 62.9994ZM23.4051 63.8161L22.7283 64.2219L22.5027 64.0867L23.1795 63.6783L23.4051 63.8161ZM22.0515 64.6303L21.3843 65.0461L21.1563 64.9109L21.8403 64.495L22.0515 64.6303ZM20.6979 65.447L20.0211 65.8553L19.7931 65.7175L20.4699 65.3117L20.6979 65.447ZM19.3419 66.2636L18.6651 66.6695L18.4395 66.5342L19.1163 66.1259L19.3419 66.2636Z" fill="white"/>
<path d="M67.7495 37.0962L67.4111 37.3016L67.1855 37.1639L67.5239 36.9609L67.7495 37.0962Z" fill="white"/>
<path d="M58.3947 80.1484C59.5016 77.5203 55.1224 72.9687 48.6137 69.9821C42.1049 66.9955 35.9312 66.705 34.8244 69.3331C33.7176 71.9613 38.0967 76.5129 44.6055 79.4994C51.1142 82.486 57.2879 82.7766 58.3947 80.1484Z" fill="#00E7FF"/>
<path d="M58.9703 38.9868L31.3775 55.7738L23.8223 51.4549L51.4151 34.668L58.9703 38.9868Z" fill="#B9CC00"/>
<path d="M99.1895 69.2171L75.5927 83.4638L57.4775 72.7268L81.0743 58.4775L99.1895 69.2171Z" fill="#B9CC00"/>
<path d="M31.6223 49.1279H30.8711V51.8836C30.8742 51.9181 30.8861 51.9512 30.9055 51.9794C30.9249 52.0076 30.9511 52.0298 30.9815 52.0439C31.0638 52.0871 31.1546 52.1096 31.2467 52.1096C31.3388 52.1096 31.4296 52.0871 31.5119 52.0439C31.542 52.0294 31.568 52.007 31.5873 51.9789C31.6067 51.9508 31.6187 51.918 31.6223 51.8836V49.1279Z" fill="#443D31"/>
<path d="M31.2649 49.168C32.3518 49.168 33.2329 48.2483 33.2329 47.1138C33.2329 45.9793 32.3518 45.0596 31.2649 45.0596C30.178 45.0596 29.2969 45.9793 29.2969 47.1138C29.2969 48.2483 30.178 49.168 31.2649 49.168Z" fill="#C6E800"/>
<path d="M36.2229 46.3701H35.4717V49.1258C35.475 49.1602 35.487 49.1932 35.5064 49.2213C35.5257 49.2495 35.5518 49.2718 35.5821 49.2861C35.6644 49.3293 35.7552 49.3518 35.8473 49.3518C35.9394 49.3518 36.0302 49.3293 36.1125 49.2861C36.143 49.2722 36.1694 49.25 36.1888 49.2218C36.2083 49.1936 36.22 49.1604 36.2229 49.1258V46.3701Z" fill="#443D31"/>
<path d="M35.8655 46.4121C36.9524 46.4121 37.8335 45.4924 37.8335 44.3579C37.8335 43.2234 36.9524 42.3037 35.8655 42.3037C34.7786 42.3037 33.8975 43.2234 33.8975 44.3579C33.8975 45.4924 34.7786 46.4121 35.8655 46.4121Z" fill="#C6E800"/>
<path d="M45.802 41.1221H45.0508V43.8777C45.0531 43.9125 45.0647 43.9459 45.0842 43.9742C45.1037 44.0026 45.1303 44.0246 45.1612 44.038C45.2431 44.0824 45.3341 44.1056 45.4264 44.1056C45.5187 44.1056 45.6096 44.0824 45.6916 44.038C45.7221 44.0242 45.7485 44.002 45.7679 43.9737C45.7874 43.9455 45.7991 43.9123 45.802 43.8777V41.1221Z" fill="#443D31"/>
<path d="M45.4436 41.1641C46.5305 41.1641 47.4116 40.2444 47.4116 39.1099C47.4116 37.9754 46.5305 37.0557 45.4436 37.0557C44.3567 37.0557 43.4756 37.9754 43.4756 39.1099C43.4756 40.2444 44.3567 41.1641 45.4436 41.1641Z" fill="#C6E800"/>
<path d="M81.074 56.4676L74.4092 52.4494V35.7451L81.074 39.7609V56.4676Z" fill="#E4E7EF"/>
<path d="M81.074 39.761L74.4092 35.7452L81.074 31.7295L87.7364 35.7452L81.074 39.761Z" fill="#EDF1F9"/>
<path d="M79.8742 43.2139L75.6094 40.6436V38.3965L79.8742 40.9668V43.2139Z" fill="#6675FF"/>
<path d="M87.7366 52.4519L81.0742 56.4676V39.7609L87.7366 35.7451V52.4519Z" fill="#8891BB"/>
<path d="M83.8728 42.2516L82.2744 43.216V40.9664L83.8728 40.002V42.2516Z" fill="#6675FF"/>
<path d="M86.5393 40.6461L84.9385 41.6106V39.361L86.5393 38.3965V40.6461Z" fill="#6675FF"/>
<path d="M83.8728 45.6256L82.2744 46.5876V44.3405L83.8728 43.376V45.6256Z" fill="#6675FF"/>
<path d="M86.5393 44.0176L84.9385 44.9821V42.735L86.5393 41.7705V44.0176Z" fill="#6675FF"/>
<path d="M83.8728 48.9981L82.2744 49.9626V47.7129L83.8728 46.751V48.9981Z" fill="#6675FF"/>
<path d="M86.5393 47.3922L84.9385 48.3567V46.1071L86.5393 45.1426V47.3922Z" fill="#6675FF"/>
<path d="M83.8728 52.5328L82.2744 53.4973V51.2477L83.8728 50.2832V52.5328Z" fill="#6675FF"/>
<path d="M86.5393 50.9264L84.9385 51.8909V49.6412L86.5393 48.6768V50.9264Z" fill="#6675FF"/>
<path d="M79.8742 46.5875L75.6094 44.0172V41.7676L79.8742 44.3378V46.5875Z" fill="#6675FF"/>
<path d="M79.8742 49.9625L75.6094 47.3922V45.1426L79.8742 47.7128V49.9625Z" fill="#6675FF"/>
<path d="M79.8742 53.4942L75.6094 50.9239V48.6768L79.8742 51.247V53.4942Z" fill="#6675FF"/>
<path d="M81.0743 37.9956L77.2295 35.6784V34.9619L81.0743 37.2792V37.9956Z" fill="#E4E7EF"/>
<path d="M81.0742 37.9956L84.919 35.6784V34.9619L81.0742 37.2792V37.9956Z" fill="#8891BB"/>
<path d="M23.3709 60.6064L16.7061 56.5907V30.2441L23.3709 34.2599V60.6064Z" fill="#E4E7EF"/>
<path d="M23.3709 34.26L16.7061 30.2443L23.3709 26.2285L30.0333 30.2443L23.3709 34.26Z" fill="#EDF1F9"/>
<path d="M22.171 37.7144L17.9062 35.1441V32.8945L22.171 35.4648V37.7144Z" fill="#84A6F4"/>
<path d="M30.0335 56.5911L23.3711 60.6069V34.2628L30.0335 30.2471V56.5911Z" fill="#8891BB"/>
<path d="M26.1697 36.7525L24.5713 37.717V35.4674L26.1697 34.5029V36.7525Z" fill="#84A6F4"/>
<path d="M28.8362 35.1471L27.2354 36.1091V33.8594L28.8362 32.8975V35.1471Z" fill="#84A6F4"/>
<path d="M26.1697 40.125L24.5713 41.0895V38.8399L26.1697 37.8779V40.125Z" fill="#84A6F4"/>
<path d="M28.8362 38.5191L27.2354 39.4836V37.234L28.8362 36.2695V38.5191Z" fill="#84A6F4"/>
<path d="M26.1697 43.4986L24.5713 44.4631V42.2135L26.1697 41.249V43.4986Z" fill="#84A6F4"/>
<path d="M28.8362 41.8932L27.2354 42.8551V40.608L28.8362 39.6436V41.8932Z" fill="#84A6F4"/>
<path d="M26.1697 47.0338L24.5713 47.9958V45.7487L26.1697 44.7842V47.0338Z" fill="#84A6F4"/>
<path d="M28.8362 45.4258L27.2354 46.3903V44.1407L28.8362 43.1787V45.4258Z" fill="#84A6F4"/>
<path d="M26.1697 50.8062L24.5713 51.7707V49.5211L26.1697 48.5566V50.8062Z" fill="#84A6F4"/>
<path d="M28.8362 49.2008L27.2354 50.1628V47.9157L28.8362 46.9512V49.2008Z" fill="#84A6F4"/>
<path d="M26.1697 54.6646L24.5713 55.6291V53.3795L26.1697 52.415V54.6646Z" fill="#84A6F4"/>
<path d="M28.8362 53.0582L27.2354 54.0202V51.7731L28.8362 50.8086V53.0582Z" fill="#84A6F4"/>
<path d="M22.171 41.0894L17.9062 38.5191V36.2695L22.171 38.8398V41.0894Z" fill="#84A6F4"/>
<path d="M22.171 44.4605L17.9062 41.8902V39.6406L22.171 42.2109V44.4605Z" fill="#84A6F4"/>
<path d="M22.171 47.9957L17.9062 45.4254V43.1758L22.171 45.7461V47.9957Z" fill="#84A6F4"/>
<path d="M22.171 51.771L17.9062 49.2008V46.9512L22.171 49.5214V51.771Z" fill="#84A6F4"/>
<path d="M22.171 55.6285L17.9062 53.0582V50.8086L22.171 53.3789V55.6285Z" fill="#84A6F4"/>
<path d="M23.3712 32.4966L19.5264 30.1794V29.4629L23.3712 31.7801V32.4966Z" fill="#E4E7EF"/>
<path d="M23.3711 32.4966L27.2159 30.1794V29.4629L23.3711 31.7801V32.4966Z" fill="#8891BB"/>
<path d="M23.3709 60.6064L16.7061 56.5907V30.2441L23.3709 34.2599V60.6064Z" fill="#E4E7EF"/>
<path d="M23.3709 34.26L16.7061 30.2443L23.3709 26.2285L30.0357 30.2443L23.3709 34.26Z" fill="#EDF1F9"/>
<path d="M22.171 37.7144L17.9062 35.1441V32.8945L22.171 35.4648V37.7144Z" fill="#6675FF"/>
<path d="M30.0359 56.5911L23.3711 60.6069V34.2628L30.0359 30.2471V56.5911Z" fill="#8891BB"/>
<path d="M26.1697 36.7525L24.5713 37.717V35.4674L26.1697 34.5029V36.7525Z" fill="#6675FF"/>
<path d="M28.8362 35.1471L27.2354 36.1091V33.8594L28.8362 32.8975V35.1471Z" fill="#6675FF"/>
<path d="M26.1697 40.125L24.5713 41.0895V38.8399L26.1697 37.8779V40.125Z" fill="#6675FF"/>
<path d="M28.8362 38.5191L27.2354 39.4836V37.234L28.8362 36.2695V38.5191Z" fill="#6675FF"/>
<path d="M26.1697 43.4986L24.5713 44.4631V42.2135L26.1697 41.249V43.4986Z" fill="#6675FF"/>
<path d="M28.8362 41.8932L27.2354 42.8551V40.608L28.8362 39.6436V41.8932Z" fill="#6675FF"/>
<path d="M26.1697 47.0338L24.5713 47.9958V45.7487L26.1697 44.7842V47.0338Z" fill="#6675FF"/>
<path d="M28.8362 45.4258L27.2354 46.3903V44.1407L28.8362 43.1787V45.4258Z" fill="#6675FF"/>
<path d="M26.1697 50.8062L24.5713 51.7707V49.5211L26.1697 48.5566V50.8062Z" fill="#6675FF"/>
<path d="M28.8362 49.2008L27.2354 50.1628V47.9157L28.8362 46.9512V49.2008Z" fill="#6675FF"/>
<path d="M26.1697 54.6646L24.5713 55.6291V53.3795L26.1697 52.415V54.6646Z" fill="#6675FF"/>
<path d="M28.8362 53.0582L27.2354 54.0202V51.7731L28.8362 50.8086V53.0582Z" fill="#6675FF"/>
<path d="M22.171 41.0894L17.9062 38.5191V36.2695L22.171 38.8398V41.0894Z" fill="#6675FF"/>
<path d="M22.171 44.4605L17.9062 41.8902V39.6406L22.171 42.2109V44.4605Z" fill="#6675FF"/>
<path d="M22.171 47.9957L17.9062 45.4254V43.1758L22.171 45.7461V47.9957Z" fill="#6675FF"/>
<path d="M22.171 51.771L17.9062 49.2008V46.9512L22.171 49.5214V51.771Z" fill="#6675FF"/>
<path d="M22.171 55.6285L17.9062 53.0582V50.8086L22.171 53.3789V55.6285Z" fill="#6675FF"/>
<path d="M23.3712 32.4966L19.5264 30.1794V29.4629L23.3712 31.7801V32.4966Z" fill="#E4E7EF"/>
<path d="M23.3711 32.4966L27.2183 30.1794V29.4629L23.3711 31.7801V32.4966Z" fill="#8891BB"/>
<path d="M53.3372 56.7162L46.6748 52.7005V26.3564L53.3372 30.3722V56.7162Z" fill="#E4E7EF"/>
<path d="M53.3377 30.3723L46.6729 26.3566L53.3377 22.3408L60.0025 26.3566L53.3377 30.3723Z" fill="#EDF1F9"/>
<path d="M52.1402 33.8242L47.873 31.2539V29.0068L52.1402 31.5771V33.8242Z" fill="#6675FF"/>
<path d="M60.0027 52.7005L53.3379 56.7162V30.3722L60.0027 26.3564V52.7005Z" fill="#8891BB"/>
<path d="M56.1355 32.8619L54.5371 33.8264V31.5768L56.1355 30.6123V32.8619Z" fill="#6675FF"/>
<path d="M58.8025 31.2565L57.2041 32.2209V29.9713L58.8025 29.0068V31.2565Z" fill="#6675FF"/>
<path d="M56.1355 36.2369L54.5371 37.1989V34.9518L56.1355 33.9873V36.2369Z" fill="#6675FF"/>
<path d="M58.8025 34.628L57.2041 35.5925V33.3428L58.8025 32.3809V34.628Z" fill="#6675FF"/>
<path d="M56.1355 39.6084L54.5371 40.5729V38.3233L56.1355 37.3613V39.6084Z" fill="#6675FF"/>
<path d="M58.8025 38.0025L57.2041 38.967V36.7174L58.8025 35.7529V38.0025Z" fill="#6675FF"/>
<path d="M56.1355 43.1432L54.5371 44.1076V41.858L56.1355 40.8936V43.1432Z" fill="#6675FF"/>
<path d="M58.8025 41.5377L57.2041 42.4997V40.2526L58.8025 39.2881V41.5377Z" fill="#6675FF"/>
<path d="M56.1355 46.9161L54.5371 47.8805V45.6309L56.1355 44.6689V46.9161Z" fill="#6675FF"/>
<path d="M58.8025 45.3102L57.2041 46.2746V44.025L58.8025 43.0605V45.3102Z" fill="#6675FF"/>
<path d="M56.1355 50.7735L54.5371 51.738V49.4883L56.1355 48.5264V50.7735Z" fill="#6675FF"/>
<path d="M58.8025 49.1686L57.2041 50.133V47.8834L58.8025 46.9189V49.1686Z" fill="#6675FF"/>
<path d="M52.1402 37.1988L47.873 34.6285V32.3789L52.1402 34.9492V37.1988Z" fill="#6675FF"/>
<path d="M52.1402 40.5728L47.873 38V35.7529L52.1402 38.3232V40.5728Z" fill="#6675FF"/>
<path d="M52.1402 44.1055L47.873 41.5352V39.2881L52.1402 41.8559V44.1055Z" fill="#6675FF"/>
<path d="M52.1402 47.8804L47.873 45.3102V43.0605L52.1402 45.6308V47.8804Z" fill="#6675FF"/>
<path d="M52.1402 51.7388L47.873 49.1686V46.9189L52.1402 49.4892V51.7388Z" fill="#6675FF"/>
<path d="M53.338 28.606L49.4932 26.2887V25.5723L53.338 27.8895V28.606Z" fill="#E4E7EF"/>
<path d="M53.3379 28.606L57.1851 26.2887V25.5723L53.3379 27.8895V28.606Z" fill="#8891BB"/>
<path d="M14.7073 65.7469L8.04492 61.7312V45.0244L14.7073 49.0402V65.7469Z" fill="#E4E7EF"/>
<path d="M14.7073 49.0403L8.04492 45.0245L14.7073 41.0088L21.3721 45.0245L14.7073 49.0403Z" fill="#EDF1F9"/>
<path d="M13.5099 52.4947L9.24512 49.9244V47.6748L13.5099 50.2451V52.4947Z" fill="#6675FF"/>
<path d="M21.3718 61.7312L14.707 65.7469V49.0427L21.3718 45.0244V61.7312Z" fill="#8891BB"/>
<path d="M17.5056 51.5303L15.9072 52.4948V50.2452L17.5056 49.2832V51.5303Z" fill="#6675FF"/>
<path d="M20.1716 49.9244L18.5732 50.8889V48.6393L20.1716 47.6748V49.9244Z" fill="#6675FF"/>
<path d="M17.5056 54.9049L15.9072 55.8694V53.6198L17.5056 52.6553V54.9049Z" fill="#6675FF"/>
<path d="M20.1716 53.2994L18.5732 54.2614V52.0143L20.1716 51.0498V53.2994Z" fill="#6675FF"/>
<path d="M17.5056 58.2789L15.9072 59.2409V56.9938L17.5056 56.0293V58.2789Z" fill="#6675FF"/>
<path d="M20.1716 56.6709L18.5732 57.6354V55.3858L20.1716 54.4238V56.6709Z" fill="#6675FF"/>
<path d="M17.5056 61.8116L15.9072 62.776V60.5264L17.5056 59.5645V61.8116Z" fill="#6675FF"/>
<path d="M20.1716 60.2057L18.5732 61.1702V58.9205L20.1716 57.9561V60.2057Z" fill="#6675FF"/>
<path d="M13.5099 55.8672L9.24512 53.2969V51.0498L13.5099 53.6176V55.8672Z" fill="#6675FF"/>
<path d="M13.5099 59.2418L9.24512 56.6715V54.4219L13.5099 56.9921V59.2418Z" fill="#6675FF"/>
<path d="M13.5099 62.7759L9.24512 60.2057V57.9561L13.5099 60.5263V62.7759Z" fill="#6675FF"/>
<path d="M14.7071 47.274L10.8623 44.9567V44.2402L14.7071 46.5575V47.274Z" fill="#E4E7EF"/>
<path d="M14.707 47.274L18.5542 44.9567V44.2402L14.707 46.5575V47.274Z" fill="#8891BB"/>
<path d="M43.8099 62.2454L37.1475 58.2297V41.5254L43.8099 45.5411V62.2454Z" fill="#E4E7EF"/>
<path d="M43.8099 45.5408L37.1475 41.5226L43.8099 37.5068L50.4747 41.5251L43.8099 45.5408Z" fill="#EDF1F9"/>
<path d="M42.6095 48.9932L38.3447 46.4229V44.1758L42.6095 46.7461V48.9932Z" fill="#6675FF"/>
<path d="M50.4744 58.2322L43.8096 62.2479V45.5411L50.4744 41.5254V58.2322Z" fill="#8891BB"/>
<path d="M46.6082 48.0309L45.0098 48.9953V46.7457L46.6082 45.7812V48.0309Z" fill="#6675FF"/>
<path d="M49.2742 46.4254L47.6758 47.3899V45.1403L49.2742 44.1758V46.4254Z" fill="#6675FF"/>
<path d="M46.6082 51.4049L45.0098 52.3669V50.1198L46.6082 49.1553V51.4049Z" fill="#6675FF"/>
<path d="M49.2742 49.7969L47.6758 50.7614V48.5118L49.2742 47.5498V49.7969Z" fill="#6675FF"/>
<path d="M46.6082 54.777L45.0098 55.7414V53.4918L46.6082 52.5273V54.777Z" fill="#6675FF"/>
<path d="M49.2742 53.1715L47.6758 54.136V51.8864L49.2742 50.9219V53.1715Z" fill="#6675FF"/>
<path d="M46.6082 58.3121L45.0098 59.2766V57.027L46.6082 56.0625V58.3121Z" fill="#6675FF"/>
<path d="M49.2742 56.7057L47.6758 57.6676V55.4205L49.2742 54.4561V56.7057Z" fill="#6675FF"/>
<path d="M42.6095 52.3668L38.3447 49.7965V47.5469L42.6095 50.1172V52.3668Z" fill="#6675FF"/>
<path d="M42.6095 55.7393L38.3447 53.169V50.9219L42.6095 53.4921V55.7393Z" fill="#6675FF"/>
<path d="M42.6095 59.274L38.3447 56.7037V54.4541L42.6095 57.0244V59.274Z" fill="#6675FF"/>
<path d="M43.8096 43.7749L39.9648 41.4577V40.7412L43.8096 43.0585V43.7749Z" fill="#E4E7EF"/>
<path d="M43.8096 43.7749L47.6568 41.4577V40.7412L43.8096 43.0585V43.7749Z" fill="#8891BB"/>
<path d="M67.8964 64.2164L57.4756 57.9385V6.69336L67.8964 12.9737V64.2164Z" fill="#E4E7EF"/>
<path d="M66.6524 15.5111L58.7012 10.7213V8.58691L66.6524 13.3767V15.5111Z" fill="#6675FF"/>
<path d="M66.6524 17.9589L58.7012 13.1666V11.0322L66.6524 15.8246V17.9589Z" fill="#6675FF"/>
<path d="M66.6524 20.4062L58.7012 15.6139V13.4795L66.6524 18.2693V20.4062Z" fill="#6675FF"/>
<path d="M66.6524 22.8519L58.7012 18.0621V15.9277L66.6524 20.7176V22.8519Z" fill="#6675FF"/>
<path d="M66.6524 25.2988L58.7012 20.509V18.3721L66.6524 23.1644V25.2988Z" fill="#6675FF"/>
<path d="M66.6524 27.747L58.7012 22.9547V20.8203L66.6524 25.6126V27.747Z" fill="#6675FF"/>
<path d="M66.6524 30.1943L58.7012 25.402V23.2676L66.6524 28.0574V30.1943Z" fill="#6675FF"/>
<path d="M66.6524 32.6391L58.7012 27.8492V25.7148L66.6524 30.5047V32.6391Z" fill="#6675FF"/>
<path d="M66.6524 35.0869L58.7012 30.297V28.1602L66.6524 32.9525V35.0869Z" fill="#6675FF"/>
<path d="M66.6524 37.5341L58.7012 32.7418V30.6074L66.6524 35.3998V37.5341Z" fill="#6675FF"/>
<path d="M66.6524 39.9789L58.7012 35.1891V33.0547L66.6524 37.8445V39.9789Z" fill="#6675FF"/>
<path d="M66.6524 42.4267L58.7012 37.6369V35.5L66.6524 40.2923V42.4267Z" fill="#6675FF"/>
<path d="M66.6524 44.874L58.7012 40.0816V37.9473L66.6524 42.7396V44.874Z" fill="#6675FF"/>
<path d="M66.6524 47.3222L58.7012 42.5299V40.3955L66.6524 45.1853V47.3222Z" fill="#6675FF"/>
<path d="M66.6524 49.767L58.7012 44.9772V42.8428L66.6524 47.6326V49.767Z" fill="#6675FF"/>
<path d="M66.6524 52.2148L58.7012 47.425V45.2881L66.6524 50.0804V52.2148Z" fill="#6675FF"/>
<path d="M66.6524 54.6621L58.7012 49.8697V47.7354L66.6524 52.5277V54.6621Z" fill="#6675FF"/>
<path d="M60.6597 51.049L60.5205 50.9663V9.68164L60.6597 9.76682V51.049Z" fill="#8891BB"/>
<path d="M62.6563 52.2541L62.5195 52.1689V10.8867L62.6563 10.9694V52.2541Z" fill="#8891BB"/>
<path d="M64.6558 53.4572L64.5166 53.3745V12.0898L64.6558 12.175V53.4572Z" fill="#8891BB"/>
<path d="M67.8959 12.9739L57.4775 6.69347L67.8959 0.413086L78.3167 6.69347L67.8959 12.9739Z" fill="#EDF1F9"/>
<path d="M78.3163 57.9385L67.8955 64.2164V12.9737L78.3163 6.69336V57.9385Z" fill="#8891BB"/>
<path d="M77.0733 10.732L69.1221 15.5244V13.3875L77.0733 8.59766V10.732Z" fill="#6675FF"/>
<path d="M77.0733 13.1793L69.1221 17.9691V15.8348L77.0733 11.0449V13.1793Z" fill="#6675FF"/>
<path d="M77.0733 15.6271L69.1221 20.4169V18.2826L77.0733 13.4902V15.6271Z" fill="#6675FF"/>
<path d="M77.0733 18.0719L69.1221 22.8642V20.7273L77.0733 15.9375V18.0719Z" fill="#6675FF"/>
<path d="M77.0733 20.5191L69.1221 25.309V23.1746L77.0733 18.3848V20.5191Z" fill="#6675FF"/>
<path d="M77.0733 22.967L69.1221 27.7568V25.6224L77.0733 20.8301V22.967Z" fill="#6675FF"/>
<path d="M77.0733 25.4117L69.1221 30.2041V28.0697L77.0733 23.2773V25.4117Z" fill="#6675FF"/>
<path d="M77.0733 27.859L69.1221 32.6513V30.5144L77.0733 25.7246V27.859Z" fill="#6675FF"/>
<path d="M77.0733 30.3072L69.1221 35.097V32.9627L77.0733 28.1729V30.3072Z" fill="#6675FF"/>
<path d="M77.0733 32.7541L69.1221 37.5439V35.4095L77.0733 30.6172V32.7541Z" fill="#6675FF"/>
<path d="M77.0733 35.1998L69.1221 39.9921V37.8578L77.0733 33.0654V35.1998Z" fill="#6675FF"/>
<path d="M77.0733 37.6471L69.1221 42.4369V40.3025L77.0733 35.5127V37.6471Z" fill="#6675FF"/>
<path d="M77.0733 40.0943L69.1221 44.8842V42.7498L77.0733 37.96V40.0943Z" fill="#6675FF"/>
<path d="M77.0733 42.5397L69.1221 47.332V45.1976L77.0733 40.4053V42.5397Z" fill="#6675FF"/>
<path d="M77.0733 44.9869L69.1221 49.7792V47.6424L77.0733 42.8525V44.9869Z" fill="#6675FF"/>
<path d="M77.0733 47.4342L69.1221 52.224V50.0896L77.0733 45.2998V47.4342Z" fill="#6675FF"/>
<path d="M77.0733 49.882L69.1221 54.6718V52.5374L77.0733 47.7451V49.882Z" fill="#6675FF"/>
<path d="M71.0811 53.4917L70.9443 53.5769V12.2922L71.0811 12.207V53.4917Z" fill="#8891BB"/>
<path d="M73.0796 52.2896L72.9404 52.3722V11.0876L73.0796 11.0049V52.2896Z" fill="#8891BB"/>
<path d="M75.0767 51.0845L74.9375 51.1697V9.88498L75.0767 9.7998V51.0845Z" fill="#8891BB"/>
<path d="M51.0456 66.5942L46.7568 64.0089V58.4199L51.0456 61.0052V66.5942Z" fill="#E4E7EF"/>
<path d="M51.0427 61.0101L46.7539 58.4248L50.5459 56.0449L54.8323 58.6302L51.0427 61.0101Z" fill="#EDF1F9"/>
<path d="M57.7107 70.6067L51.0459 66.591V49.8867L57.7107 53.9025V70.6067Z" fill="#E4E7EF"/>
<path d="M57.7083 53.9026L51.0459 49.8868L57.7083 45.8711L64.3731 49.8868L57.7083 53.9026Z" fill="#EDF1F9"/>
<path d="M56.5099 57.3545L52.2451 54.7842V52.5371L56.5099 55.1074V57.3545Z" fill="#6675FF"/>
<path d="M64.3728 66.5935L57.708 70.6092V53.9025L64.3728 49.8867V66.5935Z" fill="#8891BB"/>
<path d="M60.509 56.3932L58.9082 57.3576V55.108L60.509 54.1436V56.3932Z" fill="#6675FF"/>
<path d="M63.1726 54.7867L61.5742 55.7512V53.5016L63.1726 52.5371V54.7867Z" fill="#6675FF"/>
<path d="M60.509 59.7672L58.9082 60.7292V58.4821L60.509 57.5176V59.7672Z" fill="#6675FF"/>
<path d="M63.1726 58.1592L61.5742 59.1237V56.8741L63.1726 55.9121V58.1592Z" fill="#6675FF"/>
<path d="M60.509 63.1393L58.9082 64.1037V61.8541L60.509 60.8896V63.1393Z" fill="#6675FF"/>
<path d="M63.1726 61.5338L61.5742 62.4983V60.2487L63.1726 59.2842V61.5338Z" fill="#6675FF"/>
<path d="M60.509 66.6744L58.9082 67.6389V65.3893L60.509 64.4248V66.6744Z" fill="#6675FF"/>
<path d="M63.1726 65.068L61.5742 66.0299V63.7828L63.1726 62.8184V65.068Z" fill="#6675FF"/>
<path d="M56.5099 60.7291L52.2451 58.1588V55.9092L56.5099 58.4795V60.7291Z" fill="#6675FF"/>
<path d="M56.5099 64.1041L52.2451 61.5313V59.2842L56.5099 61.8545V64.1041Z" fill="#6675FF"/>
<path d="M56.5099 67.6363L52.2451 65.066V62.8164L56.5099 65.3892V67.6363Z" fill="#6675FF"/>
<path d="M50.3875 64.1034L47.4619 62.3448V60.0977L50.3875 61.8538V64.1034Z" fill="#6675FF"/>
<path d="M57.7105 52.1362L53.8633 49.819V49.1025L57.7105 51.4198V52.1362Z" fill="#E4E7EF"/>
<path d="M57.71 52.1362L61.5548 49.819V49.1025L57.71 51.4198V52.1362Z" fill="#8891BB"/>
<path d="M90.5378 62.1694L83.873 58.1536V31.8096L90.5378 35.8253V62.1694Z" fill="#E4E7EF"/>
<path d="M90.5378 35.8254L83.873 31.8097L90.5378 27.7939L97.2002 31.8097L90.5378 35.8254Z" fill="#EDF1F9"/>
<path d="M89.338 39.2798L85.0732 36.7096V34.46L89.338 37.0302V39.2798Z" fill="#6675FF"/>
<path d="M97.1995 58.1561L90.5371 62.1719V35.8278L97.1995 31.8096V58.1561Z" fill="#8891BB"/>
<path d="M93.3361 38.3155L91.7354 39.2799V37.0303L93.3361 36.0684V38.3155Z" fill="#6675FF"/>
<path d="M95.9998 36.7096L94.4014 37.6741V35.4244L95.9998 34.46V36.7096Z" fill="#6675FF"/>
<path d="M93.3361 41.69L91.7354 42.6545V40.4049L93.3361 39.4404V41.69Z" fill="#6675FF"/>
<path d="M95.9998 40.0846L94.4014 41.0491V38.7994L95.9998 37.835V40.0846Z" fill="#6675FF"/>
<path d="M93.3361 45.065L91.7354 46.027V43.7799L93.3361 42.8154V45.065Z" fill="#6675FF"/>
<path d="M95.9998 43.4561L94.4014 44.4206V42.171L95.9998 41.209V43.4561Z" fill="#6675FF"/>
<path d="M93.3361 48.5967L91.7354 49.5612V47.3116L93.3361 46.3496V48.5967Z" fill="#6675FF"/>
<path d="M95.9998 46.9908L94.4014 47.9553V45.7057L95.9998 44.7412V46.9908Z" fill="#6675FF"/>
<path d="M93.3361 52.3727L91.7354 53.3347V51.0875L93.3361 50.123V52.3727Z" fill="#6675FF"/>
<path d="M95.9998 50.7637L94.4014 51.7282V49.4786L95.9998 48.5166V50.7637Z" fill="#6675FF"/>
<path d="M93.3361 56.2301L91.7354 57.1921V54.9449L93.3361 53.9805V56.2301Z" fill="#6675FF"/>
<path d="M95.9998 54.6221L94.4014 55.5866V53.337L95.9998 52.375V54.6221Z" fill="#6675FF"/>
<path d="M89.338 42.6523L85.0732 40.0821V37.835L89.338 40.4027V42.6523Z" fill="#6675FF"/>
<path d="M89.338 46.0269L85.0732 43.4566V41.207L89.338 43.7773V46.0269Z" fill="#6675FF"/>
<path d="M89.338 49.5611L85.0732 46.9908V44.7412L89.338 47.3115V49.5611Z" fill="#6675FF"/>
<path d="M89.338 53.334L85.0732 50.7637V48.5166L89.338 51.0869V53.334Z" fill="#6675FF"/>
<path d="M89.338 57.1924L85.0732 54.6221V52.375L89.338 54.9453V57.1924Z" fill="#6675FF"/>
<path d="M90.5376 34.0626L86.6904 31.7428V31.0264L90.5376 33.3436V34.0626Z" fill="#E4E7EF"/>
<path d="M90.5371 34.0626L94.3819 31.7428V31.0264L90.5371 33.3436V34.0626Z" fill="#8891BB"/>
<path d="M101.066 68.1092L94.4014 64.0935V47.3867L101.066 51.4025V68.1092Z" fill="#E4E7EF"/>
<path d="M101.066 51.4026L94.4014 47.3868L101.066 43.3711L107.729 47.3868L101.066 51.4026Z" fill="#EDF1F9"/>
<path d="M99.8664 54.857L95.6016 52.2867V50.0371L99.8664 52.6074V54.857Z" fill="#6675FF"/>
<path d="M107.729 64.0964L101.066 68.1122V51.4054L107.729 47.3896V64.0964Z" fill="#8891BB"/>
<path d="M103.865 53.8951L102.267 54.8596V52.61L103.865 51.6455V53.8951Z" fill="#6675FF"/>
<path d="M106.531 52.2896L104.931 53.2516V51.0045L106.531 50.04V52.2896Z" fill="#6675FF"/>
<path d="M103.865 57.2676L102.267 58.2321V55.9825L103.865 55.0205V57.2676Z" fill="#6675FF"/>
<path d="M106.531 55.6617L104.931 56.6262V54.3766L106.531 53.4121V55.6617Z" fill="#6675FF"/>
<path d="M103.865 60.6412L102.267 61.6057V59.3561L103.865 58.3916V60.6412Z" fill="#6675FF"/>
<path d="M106.531 59.0357L104.931 59.9977V57.7506L106.531 56.7861V59.0357Z" fill="#6675FF"/>
<path d="M103.865 64.1764L102.267 65.1384V62.8912L103.865 61.9268V64.1764Z" fill="#6675FF"/>
<path d="M106.531 62.5684L104.931 63.5329V61.2833L106.531 60.3213V62.5684Z" fill="#6675FF"/>
<path d="M99.8664 58.232L95.6016 55.6617V53.4121L99.8664 55.9824V58.232Z" fill="#6675FF"/>
<path d="M99.8664 61.6035L95.6016 59.0332V56.7861L99.8664 59.3539V61.6035Z" fill="#6675FF"/>
<path d="M99.8664 65.1382L95.6016 62.568V60.3184L99.8664 62.8886V65.1382Z" fill="#6675FF"/>
<path d="M101.066 49.6392L97.2188 47.3219V46.6055L101.066 48.9227V49.6392Z" fill="#E4E7EF"/>
<path d="M101.066 49.6392L104.911 47.3219V46.6055L101.066 48.9227V49.6392Z" fill="#8891BB"/>
<path d="M82.6731 59.3115H81.9219V62.0672C81.925 62.1017 81.9368 62.1348 81.9562 62.163C81.9757 62.1911 82.0019 62.2134 82.0323 62.2275C82.1146 62.2707 82.2054 62.2932 82.2975 62.2932C82.3896 62.2932 82.4804 62.2707 82.5627 62.2275C82.5931 62.2134 82.6193 62.1911 82.6387 62.163C82.6581 62.1348 82.67 62.1017 82.6731 62.0672V59.3115Z" fill="#443D31"/>
<path d="M82.3157 59.3516C83.4026 59.3516 84.2837 58.4319 84.2837 57.2974C84.2837 56.1629 83.4026 55.2432 82.3157 55.2432C81.2288 55.2432 80.3477 56.1629 80.3477 57.2974C80.3477 58.4319 81.2288 59.3516 82.3157 59.3516Z" fill="#C6E800"/>
<path d="M78.1174 62.0596H77.3662V64.8152C77.369 64.8496 77.3807 64.8824 77.4002 64.9103C77.4197 64.9381 77.4461 64.9598 77.4766 64.973C77.5586 65.0174 77.6495 65.0406 77.7418 65.0406C77.8341 65.0406 77.9251 65.0174 78.007 64.973C78.0375 64.9598 78.064 64.9381 78.0834 64.9103C78.1029 64.8824 78.1147 64.8496 78.1174 64.8152V62.0596Z" fill="#443D31"/>
<path d="M77.76 62.1026C78.8469 62.1026 79.728 61.1829 79.728 60.0484C79.728 58.9138 78.8469 57.9941 77.76 57.9941C76.6731 57.9941 75.792 58.9138 75.792 60.0484C75.792 61.1829 76.6731 62.1026 77.76 62.1026Z" fill="#C6E800"/>
<path d="M73.2434 64.9678H72.4922V67.7234C72.4953 67.758 72.5072 67.791 72.5266 67.8192C72.546 67.8474 72.5722 67.8697 72.6026 67.8838C72.6849 67.9269 72.7757 67.9494 72.8678 67.9494C72.9599 67.9494 73.0507 67.9269 73.133 67.8838C73.1634 67.8697 73.1896 67.8474 73.209 67.8192C73.2284 67.791 73.2403 67.758 73.2434 67.7234V64.9678Z" fill="#443D31"/>
<path d="M72.886 65.0078C73.9729 65.0078 74.854 64.0881 74.854 62.9536C74.854 61.8191 73.9729 60.8994 72.886 60.8994C71.7991 60.8994 70.918 61.8191 70.918 62.9536C70.918 64.0881 71.7991 65.0078 72.886 65.0078Z" fill="#C6E800"/>
<path d="M68.4333 68.0518H67.6797V70.8074C67.6828 70.842 67.6947 70.875 67.7141 70.9032C67.7335 70.9314 67.7597 70.9537 67.7901 70.9677C67.8724 71.0109 67.9632 71.0334 68.0553 71.0334C68.1474 71.0334 68.2382 71.0109 68.3205 70.9677C68.3509 70.9537 68.3771 70.9314 68.3965 70.9032C68.4159 70.875 68.4278 70.842 68.4309 70.8074L68.4333 68.0518Z" fill="#443D31"/>
<path d="M68.0764 68.0899C69.1633 68.0899 70.0444 67.1702 70.0444 66.0357C70.0444 64.9012 69.1633 63.9814 68.0764 63.9814C66.9895 63.9814 66.1084 64.9012 66.1084 66.0357C66.1084 67.1702 66.9895 68.0899 68.0764 68.0899Z" fill="#C6E800"/>
<path d="M36.3283 60.8643H35.5771V63.6199C35.5803 63.6545 35.5921 63.6875 35.6115 63.7157C35.6309 63.7439 35.6572 63.7662 35.6875 63.7802C35.7698 63.8234 35.8606 63.8459 35.9527 63.8459C36.0448 63.8459 36.1357 63.8234 36.2179 63.7802C36.2483 63.7662 36.2746 63.7439 36.294 63.7157C36.3134 63.6875 36.3252 63.6545 36.3283 63.6199V60.8643Z" fill="#443D31"/>
<path d="M35.9709 60.9043C37.0578 60.9043 37.9389 59.9846 37.9389 58.8501C37.9389 57.7156 37.0578 56.7959 35.9709 56.7959C34.884 56.7959 34.0029 57.7156 34.0029 58.8501C34.0029 59.9846 34.884 60.9043 35.9709 60.9043Z" fill="#C6E800"/>
<path d="M31.7737 63.6123H31.0225V66.3679C31.0248 66.4027 31.0364 66.4361 31.0559 66.4645C31.0754 66.4928 31.102 66.5149 31.1329 66.5283C31.2148 66.5726 31.3058 66.5958 31.3981 66.5958C31.4904 66.5958 31.5813 66.5726 31.6633 66.5283C31.6941 66.5149 31.7208 66.4928 31.7403 66.4645C31.7598 66.4361 31.7713 66.4027 31.7737 66.3679V63.6123Z" fill="#443D31"/>
<path d="M31.4162 63.6553C32.5031 63.6553 33.3842 62.7356 33.3842 61.6011C33.3842 60.4666 32.5031 59.5469 31.4162 59.5469C30.3293 59.5469 29.4482 60.4666 29.4482 61.6011C29.4482 62.7356 30.3293 63.6553 31.4162 63.6553Z" fill="#C6E800"/>
<path d="M26.8994 66.5488H26.1602V69.3045C26.1629 69.3388 26.1747 69.3717 26.1942 69.3996C26.2136 69.4274 26.2401 69.4491 26.2706 69.4623C26.3525 69.5067 26.4434 69.5298 26.5358 69.5298C26.6281 69.5298 26.719 69.5067 26.801 69.4623C26.8315 69.4491 26.8579 69.4274 26.8774 69.3996C26.8968 69.3717 26.9086 69.3388 26.9114 69.3045L26.8994 66.5488Z" fill="#443D31"/>
<path d="M26.5412 66.5967C27.6281 66.5967 28.5092 65.677 28.5092 64.5425C28.5092 63.408 27.6281 62.4883 26.5412 62.4883C25.4543 62.4883 24.5732 63.408 24.5732 64.5425C24.5732 65.677 25.4543 66.5967 26.5412 66.5967Z" fill="#C6E800"/>
<path d="M86.803 62.4902H86.0518V65.2459C86.0546 65.2805 86.0664 65.3137 86.0858 65.3419C86.1052 65.3701 86.1316 65.3924 86.1622 65.4062C86.2441 65.4506 86.3351 65.4737 86.4274 65.4737C86.5197 65.4737 86.6106 65.4506 86.6926 65.4062C86.7234 65.3928 86.7501 65.3707 86.7696 65.3424C86.7891 65.3141 86.8006 65.2807 86.803 65.2459V62.4902Z" fill="#443D31"/>
<path d="M86.4455 62.5332C87.5324 62.5332 88.4135 61.6135 88.4135 60.479C88.4135 59.3445 87.5324 58.4248 86.4455 58.4248C85.3586 58.4248 84.4775 59.3445 84.4775 60.479C84.4775 61.6135 85.3586 62.5332 86.4455 62.5332Z" fill="#C6E800"/>
<path d="M82.2483 65.2412H81.4971V67.9969C81.5006 68.0313 81.5127 68.0641 81.532 68.0922C81.5514 68.1203 81.5774 68.1427 81.6075 68.1572C81.6898 68.2004 81.7806 68.2229 81.8727 68.2229C81.9648 68.2229 82.0556 68.2004 82.1379 68.1572C82.1682 68.1431 82.1945 68.1208 82.2139 68.0927C82.2333 68.0645 82.2452 68.0314 82.2483 67.9969V65.2412Z" fill="#443D31"/>
<path d="M81.8908 65.2813C82.9777 65.2813 83.8588 64.3616 83.8588 63.2271C83.8588 62.0926 82.9777 61.1729 81.8908 61.1729C80.804 61.1729 79.9229 62.0926 79.9229 63.2271C79.9229 64.3616 80.804 65.2813 81.8908 65.2813Z" fill="#C6E800"/>
<path d="M77.614 68.1816H76.8652V70.9373C76.8684 70.9715 76.88 71.0043 76.8989 71.0324C76.9178 71.0605 76.9434 71.083 76.9732 71.0976C77.0559 71.1408 77.1471 71.1633 77.2396 71.1633C77.3321 71.1633 77.4233 71.1408 77.506 71.0976C77.5358 71.083 77.5614 71.0605 77.5804 71.0324C77.5993 71.0043 77.6109 70.9715 77.614 70.9373V68.1816Z" fill="#443D31"/>
<path d="M77.258 68.2217C78.3449 68.2217 79.226 67.302 79.226 66.1675C79.226 65.033 78.3449 64.1133 77.258 64.1133C76.1711 64.1133 75.29 65.033 75.29 66.1675C75.29 67.302 76.1711 68.2217 77.258 68.2217Z" fill="#C6E800"/>
<path d="M73.2245 70.8076H72.4805V73.5633C72.484 73.5977 72.4961 73.6305 72.5154 73.6586C72.5348 73.6867 72.5608 73.7091 72.5909 73.7236C72.6736 73.7668 72.7648 73.7893 72.8573 73.7893C72.9498 73.7893 73.041 73.7668 73.1237 73.7236C73.1535 73.709 73.1791 73.6865 73.198 73.6584C73.217 73.6302 73.2286 73.5975 73.2317 73.5633L73.2245 70.8076Z" fill="#443D31"/>
<path d="M72.8684 70.8399C73.9553 70.8399 74.8364 69.9202 74.8364 68.7857C74.8364 67.6511 73.9553 66.7314 72.8684 66.7314C71.7815 66.7314 70.9004 67.6511 70.9004 68.7857C70.9004 69.9202 71.7815 70.8399 72.8684 70.8399Z" fill="#C6E800"/>
<path d="M68.2727 73.8135H67.5215V76.5691C67.5246 76.6037 67.5365 76.6367 67.5559 76.6649C67.5753 76.6931 67.6015 76.7154 67.6319 76.7295C67.7142 76.7726 67.805 76.7951 67.8971 76.7951C67.9892 76.7951 68.08 76.7726 68.1623 76.7295C68.1927 76.7154 68.2189 76.6931 68.2383 76.6649C68.2577 76.6367 68.2696 76.6037 68.2727 76.5691V73.8135Z" fill="#443D31"/>
<path d="M67.9153 73.8487C69.0022 73.8487 69.8833 72.929 69.8833 71.7945C69.8833 70.6599 69.0022 69.7402 67.9153 69.7402C66.8284 69.7402 65.9473 70.6599 65.9473 71.7945C65.9473 72.929 66.8284 73.8487 67.9153 73.8487Z" fill="#C6E800"/>
<path d="M68.2727 79.8262H67.5215V82.5818C67.5238 82.6166 67.5354 82.65 67.5549 82.6783C67.5744 82.7067 67.601 82.7288 67.6319 82.7422C67.7138 82.7865 67.8048 82.8097 67.8971 82.8097C67.9894 82.8097 68.0803 82.7865 68.1623 82.7422C68.1931 82.7288 68.2198 82.7067 68.2393 82.6783C68.2588 82.65 68.2703 82.6166 68.2727 82.5818V79.8262Z" fill="#443D31"/>
<path d="M67.9153 79.8662C69.0022 79.8662 69.8833 78.9465 69.8833 77.812C69.8833 76.6775 69.0022 75.7578 67.9153 75.7578C66.8284 75.7578 65.9473 76.6775 65.9473 77.812C65.9473 78.9465 66.8284 79.8662 67.9153 79.8662Z" fill="#C6E800"/>
<path d="M63.718 82.582H62.9668V85.3377C62.9699 85.3722 62.9818 85.4053 63.0012 85.4335C63.0206 85.4617 63.0468 85.4839 63.0772 85.498C63.1595 85.5412 63.2503 85.5637 63.3424 85.5637C63.4345 85.5637 63.5253 85.5412 63.6076 85.498C63.638 85.4839 63.6642 85.4617 63.6836 85.4335C63.703 85.4053 63.7149 85.3722 63.718 85.3377V82.582Z" fill="#443D31"/>
<path d="M63.3596 82.6143C64.4465 82.6143 65.3276 81.6946 65.3276 80.5601C65.3276 79.4256 64.4465 78.5059 63.3596 78.5059C62.2727 78.5059 61.3916 79.4256 61.3916 80.5601C61.3916 81.6946 62.2727 82.6143 63.3596 82.6143Z" fill="#C6E800"/>
<path d="M58.843 85.5156H58.0918V88.2713C58.0949 88.3058 58.1068 88.3389 58.1262 88.3671C58.1456 88.3953 58.1718 88.4175 58.2022 88.4316C58.2845 88.4748 58.3753 88.4973 58.4674 88.4973C58.5595 88.4973 58.6503 88.4748 58.7326 88.4316C58.763 88.4175 58.7892 88.3953 58.8086 88.3671C58.828 88.3389 58.8399 88.3058 58.843 88.2713V85.5156Z" fill="#443D31"/>
<path d="M58.4856 85.5557C59.5725 85.5557 60.4536 84.636 60.4536 83.5015C60.4536 82.367 59.5725 81.4473 58.4856 81.4473C57.3987 81.4473 56.5176 82.367 56.5176 83.5015C56.5176 84.636 57.3987 85.5557 58.4856 85.5557Z" fill="#C6E800"/>
<path d="M82.6731 71.0576H81.9219V73.8133C81.925 73.8478 81.9368 73.8809 81.9562 73.9091C81.9757 73.9372 82.0019 73.9595 82.0323 73.9736C82.1146 74.0168 82.2054 74.0393 82.2975 74.0393C82.3896 74.0393 82.4804 74.0168 82.5627 73.9736C82.5931 73.9595 82.6193 73.9372 82.6387 73.9091C82.6581 73.8809 82.67 73.8478 82.6731 73.8133V71.0576Z" fill="#443D31"/>
<path d="M82.3157 71.0977C83.4026 71.0977 84.2837 70.178 84.2837 69.0435C84.2837 67.909 83.4026 66.9893 82.3157 66.9893C81.2288 66.9893 80.3477 67.909 80.3477 69.0435C80.3477 70.178 81.2288 71.0977 82.3157 71.0977Z" fill="#C6E800"/>
<path d="M78.1174 73.8135H77.3662V76.5691C77.3693 76.6037 77.3812 76.6367 77.4006 76.6649C77.42 76.6931 77.4462 76.7154 77.4766 76.7295C77.5589 76.7726 77.6497 76.7951 77.7418 76.7951C77.8339 76.7951 77.9247 76.7726 78.007 76.7295C78.0374 76.7154 78.0636 76.6931 78.083 76.6649C78.1024 76.6367 78.1143 76.6037 78.1174 76.5691V73.8135Z" fill="#443D31"/>
<path d="M77.76 73.8487C78.8469 73.8487 79.728 72.929 79.728 71.7945C79.728 70.6599 78.8469 69.7402 77.76 69.7402C76.6731 69.7402 75.792 70.6599 75.792 71.7945C75.792 72.929 76.6731 73.8487 77.76 73.8487Z" fill="#C6E800"/>
<path d="M73.2434 76.75H72.4922V79.5057C72.4953 79.5402 72.5072 79.5733 72.5266 79.6014C72.546 79.6296 72.5722 79.6519 72.6026 79.666C72.6849 79.7092 72.7757 79.7317 72.8678 79.7317C72.9599 79.7317 73.0507 79.7092 73.133 79.666C73.1634 79.6519 73.1896 79.6296 73.209 79.6014C73.2284 79.5733 73.2403 79.5402 73.2434 79.5057V76.75Z" fill="#443D31"/>
<path d="M72.886 76.7901C73.9729 76.7901 74.854 75.8704 74.854 74.7358C74.854 73.6013 73.9729 72.6816 72.886 72.6816C71.7991 72.6816 70.918 73.6013 70.918 74.7358C70.918 75.8704 71.7991 76.7901 72.886 76.7901Z" fill="#C6E800"/>
<path d="M91.7619 65.5469H91.0107V68.3025C91.0135 68.3369 91.0253 68.3698 91.0447 68.3976C91.0642 68.4254 91.0906 68.4472 91.1211 68.4604C91.2031 68.5047 91.294 68.5279 91.3863 68.5279C91.4786 68.5279 91.5696 68.5047 91.6515 68.4604C91.682 68.4472 91.7085 68.4254 91.7279 68.3976C91.7474 68.3698 91.7592 68.3369 91.7619 68.3025V65.5469Z" fill="#443D31"/>
<path d="M91.4035 65.5967C92.4904 65.5967 93.3715 64.677 93.3715 63.5425C93.3715 62.408 92.4904 61.4883 91.4035 61.4883C90.3167 61.4883 89.4355 62.408 89.4355 63.5425C89.4355 64.677 90.3167 65.5967 91.4035 65.5967Z" fill="#C6E800"/>
<path d="M87.2063 68.3027H86.4551V71.0584C86.4582 71.0929 86.47 71.126 86.4895 71.1542C86.5089 71.1824 86.5351 71.2046 86.5655 71.2187C86.6478 71.2619 86.7386 71.2844 86.8307 71.2844C86.9228 71.2844 87.0136 71.2619 87.0959 71.2187C87.1263 71.2046 87.1525 71.1824 87.1719 71.1542C87.1913 71.126 87.2032 71.0929 87.2063 71.0584V68.3027Z" fill="#443D31"/>
<path d="M86.8489 68.3448C87.9358 68.3448 88.8169 67.4251 88.8169 66.2905C88.8169 65.156 87.9358 64.2363 86.8489 64.2363C85.762 64.2363 84.8809 65.156 84.8809 66.2905C84.8809 67.4251 85.762 68.3448 86.8489 68.3448Z" fill="#C6E800"/>
</g>
<defs>
<clipPath id="clip0_1006_22595">
<rect width="120" height="99.0382" fill="white" transform="translate(0 0.413086)"/>
</clipPath>
</defs>
</svg>
