<svg width="48" height="48" viewBox="0 0 48 48" fill="none" xmlns="http://www.w3.org/2000/svg">
<g clip-path="url(#clip0_916_21140)">
<rect width="48" height="48" rx="12" fill="white"/>
<rect width="48" height="48" rx="12" fill="url(#paint0_linear_916_21140)"/>
<path fill-rule="evenodd" clip-rule="evenodd" d="M23.9997 3.05791C12.4339 3.05791 3.05791 12.4339 3.05791 23.9997C3.05791 35.5655 12.4339 44.9414 23.9997 44.9414C35.5655 44.9414 44.9414 35.5655 44.9414 23.9997C44.9414 12.4339 35.5655 3.05791 23.9997 3.05791ZM2.94141 23.9997C2.94141 12.3695 12.3695 2.94141 23.9997 2.94141C35.6298 2.94141 45.0579 12.3695 45.0579 23.9997C45.0579 35.6298 35.6298 45.0579 23.9997 45.0579C12.3695 45.0579 2.94141 35.6298 2.94141 23.9997Z" fill="#D0D5DD"/>
<path fill-rule="evenodd" clip-rule="evenodd" d="M24 18.1165C20.7506 18.1165 18.1165 20.7506 18.1165 24C18.1165 27.2494 20.7506 29.8835 24 29.8835C27.2494 29.8835 29.8835 27.2494 29.8835 24C29.8835 20.7506 27.2494 18.1165 24 18.1165ZM18 24C18 20.6863 20.6863 18 24 18C27.3137 18 30 20.6863 30 24C30 27.3137 27.3137 30 24 30C20.6863 30 18 27.3137 18 24Z" fill="#D0D5DD"/>
<path fill-rule="evenodd" clip-rule="evenodd" d="M24.0002 19.9798C21.7803 19.9798 19.9808 21.7793 19.9808 23.9992C19.9808 26.2191 21.7803 28.0186 24.0002 28.0186C26.22 28.0186 28.0196 26.2191 28.0196 23.9992C28.0196 21.7793 26.22 19.9798 24.0002 19.9798ZM19.8643 23.9992C19.8643 21.715 21.716 19.8633 24.0002 19.8633C26.2844 19.8633 28.1361 21.715 28.1361 23.9992C28.1361 26.2834 26.2844 28.1351 24.0002 28.1351C21.716 28.1351 19.8643 26.2834 19.8643 23.9992Z" fill="#D0D5DD"/>
<path d="M23.9414 0H24.0579V48H23.9414V0Z" fill="#D0D5DD"/>
<path d="M48 23.9414L48 24.0579L-5.09259e-09 24.0579L0 23.9414L48 23.9414Z" fill="#D0D5DD"/>
<path d="M39.9033 0H40.0198V48H39.9033V0Z" fill="#D0D5DD"/>
<path d="M15.9609 0H16.0774V48H15.9609V0Z" fill="#D0D5DD"/>
<path d="M31.9229 0H32.0394V48H31.9229V0Z" fill="#D0D5DD"/>
<path d="M7.98047 0H8.09697V48H7.98047V0Z" fill="#D0D5DD"/>
<path d="M48 39.9023L48 40.0188L-5.09259e-09 40.0188L0 39.9023L48 39.9023Z" fill="#D0D5DD"/>
<path d="M48 15.9609L48 16.0774L-5.09259e-09 16.0774L0 15.9609L48 15.9609Z" fill="#D0D5DD"/>
<path d="M48 31.9219L48 32.0384L-5.09259e-09 32.0384L0 31.9219L48 31.9219Z" fill="#D0D5DD"/>
<path d="M48 7.98047L48 8.09697L-5.09259e-09 8.09697L0 7.98047L48 7.98047Z" fill="#D0D5DD"/>
<g filter="url(#filter0_dd_916_21140)">
<circle cx="24" cy="24" r="12" fill="url(#paint1_linear_916_21140)"/>
</g>
<path d="M0 24H48V28.8C48 35.5206 48 38.8809 46.6921 41.4479C45.5416 43.7058 43.7058 45.5416 41.4479 46.6921C38.8809 48 35.5206 48 28.8 48H19.2C12.4794 48 9.11905 48 6.55211 46.6921C4.29417 45.5416 2.4584 43.7058 1.30792 41.4479C0 38.8809 0 35.5206 0 28.8V24Z" fill="white" fill-opacity="0.2"/>
</g>
<rect x="0.225" y="0.225" width="47.55" height="47.55" rx="11.775" stroke="#D0D5DD" stroke-width="0.45"/>
<defs>
<filter id="filter0_dd_916_21140" x="7.5" y="9" width="33" height="33" filterUnits="userSpaceOnUse" color-interpolation-filters="sRGB">
<feFlood flood-opacity="0" result="BackgroundImageFix"/>
<feColorMatrix in="SourceAlpha" type="matrix" values="0 0 0 0 0 0 0 0 0 0 0 0 0 0 0 0 0 0 127 0" result="hardAlpha"/>
<feOffset dy="1.5"/>
<feGaussianBlur stdDeviation="1.5"/>
<feColorMatrix type="matrix" values="0 0 0 0 0.0627451 0 0 0 0 0.0941176 0 0 0 0 0.156863 0 0 0 0.06 0"/>
<feBlend mode="normal" in2="BackgroundImageFix" result="effect1_dropShadow_916_21140"/>
<feColorMatrix in="SourceAlpha" type="matrix" values="0 0 0 0 0 0 0 0 0 0 0 0 0 0 0 0 0 0 127 0" result="hardAlpha"/>
<feOffset dy="1.5"/>
<feGaussianBlur stdDeviation="2.25"/>
<feColorMatrix type="matrix" values="0 0 0 0 0.0627451 0 0 0 0 0.0941176 0 0 0 0 0.156863 0 0 0 0.1 0"/>
<feBlend mode="normal" in2="effect1_dropShadow_916_21140" result="effect2_dropShadow_916_21140"/>
<feBlend mode="normal" in="SourceGraphic" in2="effect2_dropShadow_916_21140" result="shape"/>
</filter>
<linearGradient id="paint0_linear_916_21140" x1="24" y1="0" x2="24" y2="48" gradientUnits="userSpaceOnUse">
<stop stop-color="white"/>
<stop offset="1" stop-color="#D0D5DD"/>
</linearGradient>
<linearGradient id="paint1_linear_916_21140" x1="18" y1="36" x2="30" y2="12" gradientUnits="userSpaceOnUse">
<stop stop-color="#53389E"/>
<stop offset="1" stop-color="#6941C6"/>
</linearGradient>
<clipPath id="clip0_916_21140">
<rect width="48" height="48" rx="12" fill="white"/>
</clipPath>
</defs>
</svg>
