<svg width="20" height="21" viewBox="0 0 20 21" fill="none" xmlns="http://www.w3.org/2000/svg">
<g opacity="0.5">
<path d="M10.0007 11.068C9.54041 11.068 9.16732 10.6949 9.16732 10.2347C9.16732 9.77446 9.54041 9.40137 10.0007 9.40137C10.4609 9.40137 10.834 9.77446 10.834 10.2347C10.834 10.6949 10.4609 11.068 10.0007 11.068Z" stroke="white" stroke-width="1.5"/>
<path d="M5.00065 11.068C4.54041 11.068 4.16732 10.6949 4.16732 10.2347C4.16732 9.77446 4.54041 9.40137 5.00065 9.40137C5.46089 9.40137 5.83398 9.77446 5.83398 10.2347C5.83398 10.6949 5.46089 11.068 5.00065 11.068Z" stroke="white" stroke-width="1.5"/>
<path d="M15.0007 11.068C14.5404 11.068 14.1673 10.6949 14.1673 10.2347C14.1673 9.77446 14.5404 9.40137 15.0007 9.40137C15.4609 9.40137 15.834 9.77446 15.834 10.2347C15.834 10.6949 15.4609 11.068 15.0007 11.068Z" stroke="white" stroke-width="1.5"/>
</g>
</svg>
